<svg version="1.2" xmlns="http://www.w3.org/2000/svg" viewBox="0 0 180 174" width="180" height="174">
	<style>
		.s0 { fill: #000000 } 
	</style>
	<path id="-e-Layer" fill-rule="evenodd" class="s0" d="m121.62 65.36c-5.77-7.7-11.31-15.12-16.86-22.54q-0.7 0.21-1.4 0.41 0 15.44 0 30.88-0.77 0.29-1.53 0.59c-2.83-5.36-6.94-9.57-11.04-13.81-1.22-1.26-0.96-3.12-0.97-4.79-0.02-6.66 0.12-13.33-0.11-19.99-0.14-4.02 1.04-6.37 5.41-6.58 1.41-0.07 2.98-0.39 4.31-2.05-2.22-4.46-5.77-8.04-9.95-10.6-11.82-7.25-24.31-7.93-36.59-1.43-12.15 6.43-12.83 18.65-2 27.04 5.83 4.52 12.33 7.92 18.91 11.14q8.13 3.98 15.29 9.41c17.48 13.25 16.79 33.34-1.55 45.48-13.43 8.89-28.53 10.66-44.1 9.4-11.02-0.9-21.5-4.13-31.62-8.71-3.95-1.79-6.18-4.08-6.14-8.57 0.02-3.67-2.04-7.35-0.03-11.53 3.19 2.2 6.1 4.3 9.09 6.26 13.49 8.8 28.25 12.28 44.25 10.38 1.97-0.24 3.99-0.55 5.85-1.2 7.05-2.45 13.24-6.01 14.44-14.26 1.14-7.87-3.4-13-9.43-16.81-7.31-4.62-14.98-8.69-22.41-13.12-3.14-1.87-6.27-3.84-9.09-6.15-16.28-13.32-14.8-34.02 3.51-44.69 20.21-11.78 41.44-11.84 63.07-4.18 2.24 0.79 3.33 2.61 4.62 4.36q28.12 38.23 56.32 76.41c0.92 1.25 1.48 3 3.44 3.42 0.99-2.1 0.5-4.27 0.5-6.37 0.03-22.32 0-44.64 0.01-66.97 0-6.18 0.29-6.07 7.1-6.48 5.17-0.31 6.15 2.05 6.11 6.51q-0.47 49.7-0.6 99.4c-0.01 3.69-1.19 4.56-4.85 4.93-8.17 0.83-13.32-2.04-18.05-9-10.65-15.69-22.39-30.65-33.91-46.19zm28.68 79.21c-2.06-10.33-2.01-10.2-11.32-6.6-11.03 4.26-22.16 8.22-33.21 12.41-2.02 0.76-3.85 0.73-5.81 0.01-16.9-6.14-33.81-12.25-50.71-18.4-0.73-0.27-1.34-0.87-1.98-1.3 0.77-2.45 2.94-2.33 4.53-2.88 16.35-5.69 32.74-11.26 49.11-16.91 2.28-0.79 4.48-1.01 6.83-0.24 16.77 5.48 33.56 10.91 50.34 16.39 0.91 0.29 1.93 0.61 2.32 1.91-0.16 0.3-0.27 0.89-0.61 1.1-7.13 4.48-7.2 4.48-5.77 12.77 1.32 7.69 2.94 15.34 4.14 23.06 0.33 2.08 1.53 4.83-1.21 6.34-2.49 1.36-5.26 1.4-7.62-0.22-2.38-1.63-1.28-4.13-1.06-6.43 0.63-6.88 3.87-13.49 2.03-21.01zm-12.05 12.07c0.34 3.71-1.49 5.68-3.97 7.38-11.49 7.93-24.44 8.86-37.77 7.81-8.38-0.66-16.27-2.95-23.67-7.09-4.42-2.47-6.29-5.65-6.11-10.85 0.47-12.89-1.14-12.26 11.34-7.62 5.45 2.03 10.97 3.89 16.29 6.23 5.92 2.61 11.47 2.11 17.27-0.41 7.15-3.11 14.53-5.7 21.74-8.71 3.67-1.54 4.9-0.3 4.84 3.33-0.06 3.16 0.02 6.32 0.04 9.93z"/>
</svg>